<svg width="12" height="24" viewBox="0 0 12 24" fill="none" xmlns="http://www.w3.org/2000/svg">
<path d="M6.5625 14.4938V8.25C6.5625 8.10082 6.50324 7.95774 6.39775 7.85225C6.29226 7.74676 6.14918 7.6875 6 7.6875C5.85082 7.6875 5.70774 7.74676 5.60225 7.85225C5.49676 7.95774 5.4375 8.10082 5.4375 8.25V14.4938C4.7546 14.6331 4.14779 15.0211 3.7347 15.5825C3.32162 16.1439 3.13169 16.8387 3.20174 17.5321C3.2718 18.2256 3.59684 18.8683 4.11385 19.3357C4.63087 19.8031 5.30302 20.0619 6 20.0619C6.69698 20.0619 7.36914 19.8031 7.88615 19.3357C8.40316 18.8683 8.72821 18.2256 8.79826 17.5321C8.86831 16.8387 8.67838 16.1439 8.2653 15.5825C7.85221 15.0211 7.2454 14.6331 6.5625 14.4938ZM6 18.9375C5.66624 18.9375 5.33998 18.8385 5.06248 18.6531C4.78497 18.4677 4.56868 18.2041 4.44095 17.8958C4.31323 17.5874 4.27981 17.2481 4.34492 16.9208C4.41004 16.5934 4.57076 16.2928 4.80676 16.0568C5.04276 15.8208 5.34344 15.66 5.67079 15.5949C5.99813 15.5298 6.33743 15.5632 6.64578 15.691C6.95413 15.8187 7.21768 16.035 7.4031 16.3125C7.58853 16.59 7.6875 16.9162 7.6875 17.25C7.6875 17.6976 7.50971 18.1268 7.19324 18.4432C6.87678 18.7597 6.44755 18.9375 6 18.9375ZM9.5625 12.6562V4.5C9.5625 3.55517 9.18717 2.64903 8.51907 1.98093C7.85097 1.31283 6.94483 0.9375 6 0.9375C5.05517 0.9375 4.14903 1.31283 3.48093 1.98093C2.81283 2.64903 2.4375 3.55517 2.4375 4.5V12.6562C1.47992 13.399 0.778448 14.4225 0.431208 15.5836C0.0839678 16.7447 0.108325 17.9853 0.500874 19.1318C0.893423 20.2784 1.63453 21.2735 2.62053 21.9781C3.60653 22.6827 4.78811 23.0615 6 23.0615C7.21189 23.0615 8.39347 22.6827 9.37947 21.9781C10.3655 21.2735 11.1066 20.2784 11.4991 19.1318C11.8917 17.9853 11.916 16.7447 11.5688 15.5836C11.2216 14.4225 10.5201 13.399 9.5625 12.6562ZM6 21.9375C5.0029 21.9365 4.03208 21.6177 3.22862 21.0272C2.42516 20.4367 1.83092 19.6054 1.53225 18.6541C1.23357 17.7028 1.24604 16.681 1.56782 15.7373C1.8896 14.7935 2.50394 13.977 3.32156 13.4062C3.39695 13.3537 3.45833 13.2836 3.50033 13.2018C3.54233 13.1201 3.56368 13.0294 3.5625 12.9375V4.5C3.5625 3.85353 3.81931 3.23355 4.27643 2.77643C4.73355 2.31931 5.35354 2.0625 6 2.0625C6.64647 2.0625 7.26645 2.31931 7.72357 2.77643C8.18069 3.23355 8.4375 3.85353 8.4375 4.5V12.9375C8.43754 13.0281 8.45947 13.1174 8.50142 13.1977C8.54337 13.278 8.6041 13.347 8.67844 13.3988C9.49934 13.9683 10.1168 14.7853 10.4406 15.7305C10.7645 16.6757 10.7779 17.6996 10.4789 18.653C10.1798 19.6063 9.584 20.4392 8.77829 21.03C7.97257 21.6209 6.99914 21.9388 6 21.9375Z" fill="#3B3B54"/>
</svg>
